<svg width="30" height="26" viewBox="0 0 30 26" fill="none" xmlns="http://www.w3.org/2000/svg">
<path d="M13.4488 0.0202389C10.0312 0.361166 7.19989 1.44751 4.81405 3.33127C1.46685 5.97201 -0.362093 9.97067 0.0599708 13.7266C0.382381 16.6216 1.92409 19.1699 4.51509 21.0826C4.81992 21.3079 5.09543 21.5102 5.13646 21.5333C5.24198 21.5911 5.07198 22.3307 4.83164 22.8854C4.48578 23.6886 4.28061 23.9602 3.2489 24.9946L2.25236 26L3.92303 25.9711C5.49405 25.948 5.62887 25.9364 6.19749 25.7978C7.5223 25.4568 8.56573 24.9079 9.65021 23.9776L10.0136 23.6655L10.9105 23.8447C12.6105 24.1798 13.1088 24.226 15.0901 24.226C17.0422 24.226 17.7222 24.1682 19.2053 23.8735C21.7142 23.3766 24.0238 22.3191 25.7942 20.8572C28.8307 18.3436 30.3782 14.5818 29.921 10.7912C29.6807 8.76298 28.8952 6.87344 27.6114 5.21504C27.2128 4.70076 26.1224 3.60864 25.5538 3.1637C23.5138 1.56308 20.9756 0.56341 17.816 0.13003C17.1712 0.0375748 14.0408 -0.0375443 13.4488 0.0202389ZM17.1301 1.80577C21.9663 2.30849 25.5773 4.51007 27.2831 7.98868C28.8893 11.2593 28.4555 15.0903 26.1459 18.0142C24.4107 20.2158 21.6849 21.7066 18.3729 22.2614C17.0949 22.4752 16.0339 22.5445 14.5391 22.5041C12.8157 22.4636 11.5202 22.2729 10.0078 21.8338L9.43917 21.672L8.9409 22.2094C8.66539 22.5041 8.26091 22.8739 8.04402 23.0415C7.66885 23.3188 6.39093 23.9949 6.33817 23.9371C6.32645 23.9255 6.39679 23.7175 6.49645 23.4806C6.75438 22.8623 6.91265 22.1458 6.96541 21.3426C6.99472 20.9554 7.0123 20.6434 7.00644 20.6376C7.00058 20.6319 6.72507 20.4527 6.38507 20.2389C5.48232 19.6669 4.90785 19.2046 4.21027 18.4938C3.00856 17.263 2.27581 15.934 1.91823 14.2987C1.73064 13.4493 1.73064 11.8371 1.92409 10.9646C2.80339 6.885 6.02163 3.64908 10.5119 2.32005C11.3326 2.07736 12.294 1.89822 13.566 1.75377C14.0877 1.69598 16.4091 1.73065 17.1301 1.80577Z" fill="black"/>
</svg>
