<svg width="25" height="22" viewBox="0 0 25 22" fill="none" xmlns="http://www.w3.org/2000/svg">
<path d="M6.15972 0.0311481C4.60151 0.22492 3.29731 0.859522 2.19338 1.96402C1.20179 2.95225 0.605866 3.99862 0.263941 5.35987C-0.341757 7.71904 0.0978624 10.0443 1.55349 12.2291C2.48646 13.6291 3.69297 14.9128 5.90572 16.8699C7.3125 18.1149 11.6061 21.7481 11.8161 21.8692C12.0115 21.9855 12.0848 22 12.5 22C12.9152 22 12.9885 21.9855 13.1839 21.8692C13.3939 21.7481 17.6973 18.11 19.0943 16.8699C21.3168 14.9031 22.5135 13.6242 23.4465 12.2291C24.9021 10.0443 25.3418 7.71904 24.7361 5.35987C24.3941 3.99862 23.7982 2.95225 22.8066 1.96402C21.8199 0.980629 20.7648 0.413847 19.3825 0.12319C18.6889 -0.022139 17.4091 -0.0366719 16.8034 0.0989682C15.1133 0.46229 13.8189 1.30035 12.6368 2.79239L12.5 2.96194L12.3681 2.79239C11.2007 1.32942 9.92579 0.491356 8.2992 0.12319C7.81562 0.011771 6.70191 -0.0366719 6.15972 0.0311481Z" fill="#0CB0ED"/>
</svg>
