<svg width="28" height="35" viewBox="0 0 28 35" fill="none" xmlns="http://www.w3.org/2000/svg">
<path fill-rule="evenodd" clip-rule="evenodd" d="M14 0C14.3527 6.28186e-05 14.6972 0.106705 14.9883 0.305944C15.2793 0.505183 15.5034 0.78772 15.6311 1.11651L27.8815 32.6169C28.0061 32.9381 28.0332 33.2889 27.9592 33.6255C27.8853 33.962 27.7137 34.2692 27.4659 34.5086C27.2181 34.748 26.9051 34.9089 26.5662 34.9712C26.2273 35.0335 25.8776 34.9943 25.5609 34.8586L15.7501 30.6551V19.2502C15.7501 18.7861 15.5657 18.341 15.2375 18.0128C14.9093 17.6846 14.4641 17.5002 14 17.5002C13.5359 17.5002 13.0907 17.6846 12.7625 18.0128C12.4343 18.341 12.2499 18.7861 12.2499 19.2502V30.6551L2.43912 34.8586C2.12239 34.9943 1.77266 35.0335 1.43378 34.9712C1.09489 34.9089 0.781931 34.748 0.534122 34.5086C0.286314 34.2692 0.114687 33.962 0.0407584 33.6255C-0.0331706 33.2889 -0.00611241 32.9381 0.118541 32.6169L12.3689 1.11651C12.4966 0.78772 12.7207 0.505183 13.0117 0.305944C13.3028 0.106705 13.6473 6.28186e-05 14 0Z" fill="#0CB0ED"/>
</svg>
