<svg width="25" height="23" viewBox="0 0 25 23" fill="none" xmlns="http://www.w3.org/2000/svg">
<path d="M6.15972 0.0325621C4.60151 0.235141 3.29731 0.898589 2.19338 2.05329C1.20179 3.08645 0.605866 4.18037 0.263941 5.6035C-0.341757 8.0699 0.0978624 10.5009 1.55349 12.7849C2.48646 14.2486 3.69297 15.5907 5.90572 17.6367C7.3125 18.9383 11.6061 22.7366 11.8161 22.8633C12.0115 22.9848 12.0848 23 12.5 23C12.9152 23 12.9885 22.9848 13.1839 22.8633C13.3939 22.7366 17.6973 18.9332 19.0943 17.6367C21.3168 15.5805 22.5135 14.2435 23.4465 12.7849C24.9021 10.5009 25.3418 8.0699 24.7361 5.6035C24.3941 4.18037 23.7982 3.08645 22.8066 2.05329C21.8199 1.0252 20.7648 0.432656 19.3825 0.128787C18.6889 -0.0231473 17.4091 -0.0383407 16.8034 0.103465C15.1133 0.483301 13.8189 1.35946 12.6368 2.91932L12.5 3.09658L12.3681 2.91932C11.2007 1.38984 9.92579 0.513688 8.2992 0.128787C7.81562 0.0123041 6.70191 -0.0383407 6.15972 0.0325621ZM7.79119 1.57723C9.17843 1.83045 10.3752 2.66103 11.3228 4.0335C11.484 4.27154 11.6843 4.55515 11.7624 4.67163C12.1239 5.19834 12.8761 5.19834 13.2376 4.67163C13.3157 4.55515 13.516 4.27154 13.6772 4.0335C14.9716 2.15965 16.7741 1.27843 18.7377 1.55697C20.9163 1.86591 22.6161 3.44602 23.2658 5.77062C23.7787 7.60903 23.554 9.5386 22.621 11.2757C21.8395 12.7292 20.5353 14.2536 18.2639 16.3655C17.1648 17.3835 12.544 21.506 12.5 21.506C12.4512 21.506 7.84981 17.3987 6.73611 16.3655C3.24358 13.1192 1.86611 11.0934 1.53395 8.71815C1.31903 7.18361 1.62676 5.53259 2.37411 4.23102C3.49758 2.27106 5.68591 1.19739 7.79119 1.57723Z" fill="#0CB0ED"/>
</svg>
