<svg width="18" height="22" viewBox="0 0 18 22" fill="none" xmlns="http://www.w3.org/2000/svg">
<path d="M9.00065 21.8333C8.72843 21.8333 8.4951 21.7611 8.30065 21.6166C8.10621 21.4722 7.96037 21.2826 7.86315 21.0479C7.49371 20.0368 7.02704 19.0888 6.46315 18.2041C5.91871 17.3194 5.15065 16.2812 4.15898 15.0895C3.16732 13.8979 2.36037 12.7604 1.73815 11.677C1.13537 10.5937 0.833984 9.28468 0.833984 7.74996C0.833984 5.63746 1.62148 3.84996 3.19648 2.38746C4.79093 0.906903 6.72565 0.166626 9.00065 0.166626C11.2757 0.166626 13.2007 0.906903 14.7757 2.38746C16.3701 3.84996 17.1673 5.63746 17.1673 7.74996C17.1673 9.39301 16.827 10.7652 16.1465 11.8666C15.4854 12.95 14.7173 14.0243 13.8423 15.0895C12.7923 16.3895 11.9951 17.4729 11.4507 18.3395C10.9257 19.1882 10.4882 20.0909 10.1382 21.0479C10.0409 21.3007 9.88537 21.4993 9.67148 21.6437C9.47704 21.7701 9.25343 21.8333 9.00065 21.8333ZM9.00065 10.4583C9.81732 10.4583 10.5076 10.1965 11.0715 9.67287C11.6354 9.14926 11.9173 8.50829 11.9173 7.74996C11.9173 6.99162 11.6354 6.35065 11.0715 5.82704C10.5076 5.30343 9.81732 5.04163 9.00065 5.04163C8.18398 5.04163 7.49371 5.30343 6.92982 5.82704C6.36593 6.35065 6.08398 6.99162 6.08398 7.74996C6.08398 8.50829 6.36593 9.14926 6.92982 9.67287C7.49371 10.1965 8.18398 10.4583 9.00065 10.4583Z" fill="#0CB0ED"/>
</svg>
