<svg width="49" height="39" viewBox="0 0 49 39" fill="none" xmlns="http://www.w3.org/2000/svg">
<path fill-rule="evenodd" clip-rule="evenodd" d="M12.1875 4.875C12.1875 3.58207 12.7011 2.34209 13.6154 1.42785C14.5296 0.513614 15.7696 0 17.0625 0H43.875C45.1679 0 46.4079 0.513614 47.3221 1.42785C48.2364 2.34209 48.75 3.58207 48.75 4.875V21.9375C48.75 23.2304 48.2364 24.4704 47.3221 25.3846C46.4079 26.2989 45.1679 26.8125 43.875 26.8125H39V17.0625C39 15.1231 38.2296 13.2631 36.8582 11.8918C35.4869 10.5204 33.6269 9.75 31.6875 9.75H12.1875V4.875Z" fill="#0CB0ED"/>
<path fill-rule="evenodd" clip-rule="evenodd" d="M0 17.0625C0 15.7696 0.513614 14.5296 1.42785 13.6154C2.34209 12.7011 3.58207 12.1875 4.875 12.1875H31.6875C32.9804 12.1875 34.2204 12.7011 35.1346 13.6154C36.0489 14.5296 36.5625 15.7696 36.5625 17.0625V34.125C36.5625 35.4179 36.0489 36.6579 35.1346 37.5721C34.2204 38.4864 32.9804 39 31.6875 39H4.875C3.58207 39 2.34209 38.4864 1.42785 37.5721C0.513614 36.6579 0 35.4179 0 34.125V17.0625ZM18.2812 19.5C16.6651 19.5 15.1151 20.142 13.9723 21.2848C12.8295 22.4276 12.1875 23.9776 12.1875 25.5938C12.1875 27.2099 12.8295 28.7599 13.9723 29.9027C15.1151 31.0455 16.6651 31.6875 18.2812 31.6875C19.8974 31.6875 21.4474 31.0455 22.5902 29.9027C23.733 28.7599 24.375 27.2099 24.375 25.5938C24.375 23.9776 23.733 22.4276 22.5902 21.2848C21.4474 20.142 19.8974 19.5 18.2812 19.5Z" fill="#0CB0ED"/>
<path d="M20.7188 25.5938C20.7188 26.2402 20.4619 26.8602 20.0048 27.3173C19.5477 27.7744 18.9277 28.0312 18.2812 28.0312C17.6348 28.0312 17.0148 27.7744 16.5577 27.3173C16.1006 26.8602 15.8438 26.2402 15.8438 25.5938C15.8438 24.9473 16.1006 24.3273 16.5577 23.8702C17.0148 23.4131 17.6348 23.1562 18.2812 23.1562C18.9277 23.1562 19.5477 23.4131 20.0048 23.8702C20.4619 24.3273 20.7188 24.9473 20.7188 25.5938Z" fill="#0CB0ED"/>
</svg>
