<svg width="30" height="25" viewBox="0 0 30 25" fill="none" xmlns="http://www.w3.org/2000/svg">
<path d="M28.0513 0.176934C27.9738 0.171329 22.1605 0.38261 15.127 0.651057C1.31043 1.18176 1.93209 1.14244 1.38398 1.53079C0.984663 1.8156 0.802323 2.07319 0.658314 2.56789C0.540075 2.97406 0.535994 3.04631 0.612189 3.46389C0.755676 4.29082 0.572629 4.08502 5.08602 8.35877L9.16627 12.2183L10.2391 17.733C11.4245 23.851 11.3468 23.5742 11.9715 24.1458C12.2793 24.4274 12.3425 24.4628 12.7488 24.5811C13.2436 24.7251 13.5589 24.7096 14.0136 24.5256C14.6356 24.2717 14.2687 24.775 22.1556 13.3843L29.4518 2.83843L29.5883 2.36977C29.6892 2.00375 29.7101 1.83474 29.6798 1.62822C29.5914 0.981113 29.1979 0.527658 28.5492 0.310567C28.3528 0.247741 28.1273 0.187747 28.0513 0.176934ZM18.2125 6.3167C13.7391 8.77645 10.0549 10.7768 10.034 10.7707C10.008 10.7631 8.6506 9.48681 7.01659 7.93791C5.37888 6.38228 3.65065 4.74945 3.17668 4.30081C2.70272 3.85216 2.28454 3.4254 2.24913 3.35296C2.14744 3.12 2.18401 2.95554 2.36558 2.85589C2.48813 2.78424 5.24736 2.66109 14.408 2.30579C20.9459 2.05123 26.3061 1.84362 26.3218 1.84817C26.3389 1.84751 22.6859 3.85695 18.2125 6.3167ZM20.3544 13.1085C15.1317 20.6655 13.5483 22.9215 13.422 22.9864C13.2405 23.0861 13.082 23.0287 12.94 22.8179C12.872 22.702 10.8272 12.3742 10.856 12.2753C10.8666 12.2389 27.0836 3.307 27.1201 3.31761C27.1253 3.31913 24.0798 7.72532 20.3544 13.1085Z" fill="black"/>
</svg>
